# item 312 - h

mtllib 0_kn_cape_16.mtl

v 17.602800 0.303800 10.532100
v 6.742200 18.041599 7.596800
v 8.801400 0.303800 13.543600
v 13.484400 18.041700 5.831900
v -0.000000 18.041700 5.831900
v -0.000000 0.303800 10.532100
v 5.020000 32.165501 6.425400
v 10.040000 32.165501 4.660500
v -0.000000 32.165501 4.660500
v 2.783800 45.999001 4.106900
v 5.567600 45.999001 3.386900
v -0.000000 45.999001 3.386900
v 1.934900 49.965000 0.455300
v 4.601300 48.923801 0.293200
v -0.000000 49.603100 0.990900
v 1.926400 48.364899 -1.869700
v 3.743900 47.643501 -2.031800
v -17.602800 0.303800 10.532100
v -8.801400 0.303800 13.543600
v -6.742200 18.041599 7.596800
v -13.484400 18.041700 5.831900
v -5.020000 32.165501 6.425400
v -10.040000 32.165501 4.660500
v -2.783800 45.999001 4.106900
v -5.567600 45.999001 3.386900
v -1.934900 49.965000 0.455300
v -4.601300 48.923801 0.293200
v -1.926400 48.364899 -1.869700
v -3.743900 47.643501 -2.031800
v 8.801400 0.303800 13.543600
v 6.742200 18.041599 7.596800
v 17.602800 0.303800 10.532100
v 13.484400 18.041700 5.831900
v -0.000000 0.303800 10.532100
v -0.000000 18.041700 5.831900
v 5.020000 32.165501 6.425400
v 10.040000 32.165501 4.660500
v -0.000000 32.165501 4.660500
v 2.783800 45.999001 4.106900
v 5.567600 45.999001 3.386900
v -0.000000 45.999001 3.386900
v 1.934900 49.965000 0.455300
v 4.601300 48.923801 0.293200
v -0.000000 49.603100 0.990900
v 3.743900 47.643501 -2.031800
v 1.926400 48.364899 -1.869700
v -6.742200 18.041599 7.596800
v -8.801400 0.303800 13.543600
v -17.602800 0.303800 10.532100
v -13.484400 18.041700 5.831900
v -5.020000 32.165501 6.425400
v -10.040000 32.165501 4.660500
v -2.783800 45.999001 4.106900
v -5.567600 45.999001 3.386900
v -1.934900 49.965000 0.455300
v -4.601300 48.923801 0.293200
v -3.743900 47.643501 -2.031800
v -1.926400 48.364899 -1.869700

vn 0.273500 0.317700 0.907900
vn -0.005000 0.200100 0.979800
vn -0.087400 0.298700 0.950300
vn 0.274700 0.190200 0.942500
vn -0.000000 0.210800 0.977500
vn -0.000000 0.256100 0.966600
vn -0.001200 0.126200 0.992000
vn 0.299900 0.177500 0.937300
vn -0.000000 0.071600 0.997400
vn 0.065200 0.427200 0.901800
vn 0.263200 0.556400 0.788100
vn -0.000000 0.265800 0.964000
vn 0.254000 0.861500 0.439600
vn 0.343100 0.919100 -0.193500
vn -0.000000 0.622600 0.782600
vn 0.272400 0.794900 -0.542200
vn 0.268900 0.798400 -0.538800
vn -0.273500 0.317700 0.907900
vn 0.087400 0.298700 0.950300
vn 0.005000 0.200100 0.979800
vn -0.274700 0.190200 0.942500
vn 0.001200 0.126200 0.992000
vn -0.299900 0.177500 0.937300
vn -0.065200 0.427200 0.901800
vn -0.263200 0.556400 0.788100
vn -0.254000 0.861500 0.439600
vn -0.343100 0.919100 -0.193500
vn -0.272400 0.794900 -0.542200
vn -0.268900 0.798400 -0.538800
vn 0.087400 -0.298700 -0.950300
vn 0.005000 -0.200100 -0.979800
vn -0.273500 -0.317700 -0.907900
vn -0.274700 -0.190200 -0.942500
vn 0.000000 -0.256100 -0.966600
vn 0.000000 -0.210800 -0.977500
vn 0.001200 -0.126200 -0.992000
vn -0.299900 -0.177500 -0.937300
vn 0.000000 -0.071600 -0.997400
vn -0.065200 -0.427200 -0.901800
vn -0.263200 -0.556400 -0.788100
vn 0.000000 -0.265800 -0.964000
vn -0.254000 -0.861500 -0.439600
vn -0.343100 -0.919100 0.193500
vn 0.000000 -0.622600 -0.782600
vn -0.268900 -0.798400 0.538800
vn -0.272400 -0.794900 0.542200
vn -0.005000 -0.200100 -0.979800
vn -0.087400 -0.298700 -0.950300
vn 0.273500 -0.317700 -0.907900
vn 0.274700 -0.190200 -0.942500
vn -0.001200 -0.126200 -0.992000
vn 0.299900 -0.177500 -0.937300
vn 0.065200 -0.427200 -0.901800
vn 0.263200 -0.556400 -0.788100
vn 0.254000 -0.861500 -0.439600
vn 0.343100 -0.919100 0.193500
vn 0.268900 -0.798400 0.538800
vn 0.272400 -0.794900 0.542200

vt 0.059800 0.094800
vt 0.308300 0.357300
vt 0.253600 0.026200
vt 0.117000 0.357300
vt 0.500000 0.357300
vt 0.500000 0.013200
vt 0.357200 0.641400
vt 0.214700 0.641400
vt 0.500000 0.641400
vt 0.420600 0.919700
vt 0.341600 0.919700
vt 0.500000 0.919700
vt 0.444700 0.999500
vt 0.369000 0.978600
vt 0.500000 0.992200
vt 0.444900 0.967300
vt 0.393400 0.952800
vt 0.060200 0.094800
vt 0.254000 0.026200
vt 0.308700 0.357300
vt 0.117400 0.357300
vt 0.357600 0.641400
vt 0.215100 0.641400
vt 0.421000 0.919700
vt 0.342000 0.919700
vt 0.445100 0.999500
vt 0.369400 0.978600
vt 0.445300 0.967300
vt 0.393800 0.952800
vt 0.753500 0.026200
vt 0.691300 0.357300
vt 0.917700 0.080000
vt 0.878100 0.356600
vt 0.512100 0.013200
vt 0.512100 0.357300
vt 0.634700 0.641400
vt 0.765800 0.641600
vt 0.512100 0.641400
vt 0.579000 0.919700
vt 0.658000 0.919700
vt 0.512100 0.919700
vt 0.554900 0.999500
vt 0.630600 0.978600
vt 0.512100 0.992200
vt 0.606200 0.952800
vt 0.554700 0.967300
vt 0.691200 0.357300
vt 0.753400 0.026200
vt 0.917600 0.080000
vt 0.878000 0.356600
vt 0.634600 0.641400
vt 0.765700 0.641600
vt 0.578900 0.919700
vt 0.657900 0.919700
vt 0.554800 0.999500
vt 0.630500 0.978600
vt 0.606100 0.952800
vt 0.554600 0.967300

g defaultobject
usemtl 0_kn_cape_16
f 1/1/1 2/2/2 3/3/3
f 2/2/2 1/1/1 4/4/4
f 3/3/3 5/5/5 6/6/6
f 5/5/5 3/3/3 2/2/2
f 4/4/4 7/7/7 2/2/2
f 7/7/7 4/4/4 8/8/8
f 2/2/2 9/9/9 5/5/5
f 9/9/9 2/2/2 7/7/7
f 8/8/8 10/10/10 7/7/7
f 10/10/10 8/8/8 11/11/11
f 7/7/7 12/12/12 9/9/9
f 12/12/12 7/7/7 10/10/10
f 11/11/11 13/13/13 10/10/10
f 13/13/13 11/11/11 14/14/14
f 10/10/10 15/15/15 12/12/12
f 15/15/15 10/10/10 13/13/13
f 16/16/16 14/14/14 17/17/17
f 14/14/14 16/16/16 13/13/13
f 18/18/18 19/19/19 20/20/20
f 20/20/20 21/21/21 18/18/18
f 19/19/19 6/6/6 5/5/5
f 5/5/5 20/20/20 19/19/19
f 21/21/21 20/20/20 22/22/22
f 22/22/22 23/23/23 21/21/21
f 20/20/20 5/5/5 9/9/9
f 9/9/9 22/22/22 20/20/20
f 23/23/23 22/22/22 24/24/24
f 24/24/24 25/25/25 23/23/23
f 22/22/22 9/9/9 12/12/12
f 12/12/12 24/24/24 22/22/22
f 25/25/25 24/24/24 26/26/26
f 26/26/26 27/27/27 25/25/25
f 24/24/24 12/12/12 15/15/15
f 15/15/15 26/26/26 24/24/24
f 28/28/28 29/29/29 27/27/27
f 27/27/27 26/26/26 28/28/28
f 30/30/30 31/31/31 32/32/32
f 33/33/33 32/32/32 31/31/31
f 34/34/34 35/35/35 30/30/30
f 31/31/31 30/30/30 35/35/35
f 31/31/31 36/36/36 33/33/33
f 37/37/37 33/33/33 36/36/36
f 35/35/35 38/38/38 31/31/31
f 36/36/36 31/31/31 38/38/38
f 36/36/36 39/39/39 37/37/37
f 40/40/40 37/37/37 39/39/39
f 38/38/38 41/41/41 36/36/36
f 39/39/39 36/36/36 41/41/41
f 39/39/39 42/42/42 40/40/40
f 43/43/43 40/40/40 42/42/42
f 41/41/41 44/44/44 39/39/39
f 42/42/42 39/39/39 44/44/44
f 45/45/45 43/43/43 46/46/46
f 42/42/42 46/46/46 43/43/43
f 47/47/47 48/48/48 49/49/49
f 49/49/49 50/50/50 47/47/47
f 35/35/35 34/34/34 48/48/48
f 48/48/48 47/47/47 35/35/35
f 51/51/51 47/47/47 50/50/50
f 50/50/50 52/52/52 51/51/51
f 38/38/38 35/35/35 47/47/47
f 47/47/47 51/51/51 38/38/38
f 53/53/53 51/51/51 52/52/52
f 52/52/52 54/54/54 53/53/53
f 41/41/41 38/38/38 51/51/51
f 51/51/51 53/53/53 41/41/41
f 55/55/55 53/53/53 54/54/54
f 54/54/54 56/56/56 55/55/55
f 44/44/44 41/41/41 53/53/53
f 53/53/53 55/55/55 44/44/44
f 56/56/56 57/57/57 58/58/58
f 58/58/58 55/55/55 56/56/56
