# item 264 - h

mtllib 0_kn_boots_17.mtl

v 4.777400 13.868300 -2.397400
v 6.806800 13.746200 0.479700
v 7.584100 9.877600 -0.421900
v 5.084900 9.225100 -3.163100
v 2.395700 9.377000 -0.357700
v 2.668600 13.245500 0.543700
v 6.806800 13.746200 0.479700
v 5.379800 4.863700 1.059100
v 6.641900 4.635700 -0.325000
v 4.680700 14.938600 2.894000
v 2.668600 13.245500 0.543700
v 4.023400 4.464100 -0.694300
v 4.138700 18.976200 0.747500
v 2.800000 15.996000 -0.654800
v 6.443700 18.301701 -1.334500
v 4.097300 20.889200 1.958400
v 6.508300 24.546499 -1.997100
v 1.247500 20.784599 1.042400
v 7.683000 2.842400 0.837200
v 3.476900 0.007000 2.322300
v 5.841800 0.007000 2.643100
v 2.297900 18.056499 -1.314900
v 7.664100 0.007000 0.862300
v 6.303100 16.233601 -0.558100
v 6.443700 18.301701 -1.334500
v 4.138700 18.976200 0.747500
v 6.303100 16.233601 -0.558100
v 4.680700 14.938600 2.894000
v 6.303100 16.233601 -0.558100
v 4.138700 18.976200 0.747500
v 2.297900 18.056499 -1.314900
v 4.256500 19.125700 -3.638400
v 4.407900 17.243700 -3.852000
v 6.641900 4.635700 -0.325000
v 8.143800 2.637400 -2.660400
v 5.416500 4.371700 -2.251700
v 3.980600 2.849800 -3.840800
v 4.023400 4.464100 -0.694300
v 7.683000 2.842400 0.837200
v 4.482600 2.027000 -5.742900
v 5.090900 1.208400 -9.161100
v 4.289300 0.007000 -5.783900
v 7.778700 1.000700 -8.677200
v 8.041100 0.011500 -8.664600
v 1.017100 23.499100 -4.977500
v 3.560300 24.679100 -5.918600
v 1.247500 20.784599 1.042400
v 2.800000 15.996000 -0.654800
v 6.443700 18.301701 -1.334500
v 6.303100 16.233601 -0.558100
v 4.777400 13.801600 -2.261700
v 4.777400 13.801600 -2.261700
v 6.806800 13.746200 0.479700
v 2.668600 13.245500 0.543700
v 3.476900 0.007000 2.322300
v 3.824800 -0.012700 -3.862800
v 8.630900 -0.012700 -2.626500
v 7.934900 1.751800 -4.961400
v 8.721800 -0.032300 -4.695100
v 8.132500 1.997100 -4.713100
v 5.077700 0.010300 -9.303500
v 6.508300 24.546499 -1.997100
v 2.668600 13.245500 0.543700
v 8.470700 0.007000 -4.943400
v 4.292300 2.299800 -5.555900
v 4.088400 -0.032300 -5.624500
v 4.289300 0.007000 -5.783900
v 4.292300 2.299800 -5.555900
v 4.482600 2.027000 -5.742900
v 4.292300 2.299800 -5.555900
v 4.289300 0.007000 -5.783900
v 4.088400 -0.032300 -5.624500
v 4.482600 2.027000 -5.742900
v 8.132500 1.997100 -4.713100
v 7.934900 1.751800 -4.961400
v 8.132500 1.997100 -4.713100
v 4.482600 2.027000 -5.742900
v 4.292300 2.299800 -5.555900
v 7.934900 1.751800 -4.961400
v 8.721800 -0.032300 -4.695100
v 8.470700 0.007000 -4.943400
v 8.721800 -0.032300 -4.695100
v 7.934900 1.751800 -4.961400
v 8.132500 1.997100 -4.713100
v 7.664100 0.007000 0.862300
v 6.806800 13.746200 0.479700
v 8.041100 0.011500 -8.664600
v 8.470700 0.007000 -4.943400
v 5.077700 0.010300 -9.303500
v 3.824800 -0.012700 -3.862800
v 5.841800 0.007000 2.643100
v 3.476900 0.007000 2.322300
v 3.824800 -0.012700 -3.862800
v 7.664100 0.007000 0.862300
v 5.841800 0.007000 2.643100
v 4.289300 0.007000 -5.783900
v 8.630900 -0.012700 -2.626500
v 3.824800 -0.012700 -3.862800
v 8.470700 0.007000 -4.943400
v 4.289300 0.007000 -5.783900
v 5.077700 0.010300 -9.303500
v 8.470700 0.007000 -4.943400
v 8.630900 -0.012700 -2.626500
v 4.289300 0.007000 -5.783900
v 3.824800 -0.012700 -3.862800
v 4.088400 -0.032300 -5.624500
v 4.289300 0.007000 -5.783900
v 8.630900 -0.012700 -2.626500
v 8.470700 0.007000 -4.943400
v 8.721800 -0.032300 -4.695100
v 3.824800 -0.012700 -3.862800
v 8.630900 -0.012700 -2.626500
v 7.664100 0.007000 0.862300
v -4.777400 13.868300 -2.397500
v -7.584100 9.877600 -0.421900
v -6.806900 13.746200 0.479700
v -5.084900 9.225100 -3.163100
v -2.395700 9.377000 -0.357700
v -2.668600 13.245500 0.543700
v -6.806900 13.746200 0.479700
v -6.641900 4.635700 -0.325000
v -5.379800 4.863700 1.059100
v -4.680700 14.938600 2.894000
v -4.023400 4.464100 -0.694300
v -2.668600 13.245500 0.543700
v -2.800000 15.996000 -0.654800
v -4.138700 18.976200 0.747600
v -6.443700 18.301701 -1.334500
v -4.097300 20.889200 1.958500
v -6.508400 24.546499 -1.997100
v -1.247400 20.784599 1.042500
v -7.683000 2.842400 0.837200
v -3.476900 0.007000 2.322300
v -5.841800 0.007000 2.643100
v -2.297900 18.056499 -1.314900
v -7.664100 0.007000 0.862300
v -6.303100 16.233601 -0.558100
v -6.443700 18.301701 -1.334500
v -6.303100 16.233601 -0.558100
v -4.138700 18.976200 0.747600
v -4.680700 14.938600 2.894000
v -4.138700 18.976200 0.747600
v -6.303100 16.233601 -0.558100
v -2.297900 18.056499 -1.314900
v -4.407900 17.243700 -3.852100
v -4.256500 19.125700 -3.638400
v -6.641900 4.635700 -0.325000
v -5.416500 4.371700 -2.251700
v -8.143800 2.637400 -2.660400
v -3.980600 2.849800 -3.840800
v -4.023400 4.464100 -0.694300
v -7.683000 2.842400 0.837200
v -4.482600 2.027000 -5.742900
v -4.289300 0.007000 -5.783900
v -5.090900 1.208400 -9.161100
v -8.041100 0.011500 -8.664600
v -7.778700 1.000700 -8.677200
v -1.017000 23.499100 -4.977500
v -3.560300 24.679100 -5.918700
v -1.247400 20.784599 1.042500
v -2.800000 15.996000 -0.654800
v -6.443700 18.301701 -1.334500
v -6.303100 16.233601 -0.558100
v -4.777400 13.801600 -2.261700
v -4.777400 13.801600 -2.261700
v -6.806900 13.746200 0.479700
v -2.668600 13.245500 0.543700
v -3.476900 0.007000 2.322300
v -3.824800 -0.012700 -3.862800
v -8.630900 -0.012700 -2.626500
v -7.934900 1.751800 -4.961400
v -8.132500 1.997100 -4.713100
v -8.721800 -0.032300 -4.695100
v -5.077700 0.010300 -9.303500
v -6.508400 24.546499 -1.997100
v -2.668600 13.245500 0.543700
v -8.470700 0.007000 -4.943400
v -4.292300 2.299800 -5.555900
v -4.088400 -0.032300 -5.624500
v -4.289300 0.007000 -5.783900
v -4.482600 2.027000 -5.742900
v -4.292300 2.299800 -5.555900
v -4.292300 2.299800 -5.555900
v -4.088400 -0.032300 -5.624500
v -4.289300 0.007000 -5.783900
v -4.482600 2.027000 -5.742900
v -7.934900 1.751800 -4.961400
v -8.132500 1.997100 -4.713100
v -8.132500 1.997100 -4.713100
v -4.292300 2.299800 -5.555900
v -4.482600 2.027000 -5.742900
v -7.934900 1.751800 -4.961400
v -8.470700 0.007000 -4.943400
v -8.721800 -0.032300 -4.695100
v -8.721800 -0.032300 -4.695100
v -8.132500 1.997100 -4.713100
v -7.934900 1.751800 -4.961400
v -7.664100 0.007000 0.862300
v -6.806900 13.746200 0.479700
v -8.041100 0.011500 -8.664600
v -5.077700 0.010300 -9.303500
v -8.470700 0.007000 -4.943400
v -3.824800 -0.012700 -3.862800
v -3.476900 0.007000 2.322300
v -5.841800 0.007000 2.643100
v -3.824800 -0.012700 -3.862800
v -5.841800 0.007000 2.643100
v -7.664100 0.007000 0.862300
v -4.289300 0.007000 -5.783900
v -3.824800 -0.012700 -3.862800
v -8.630900 -0.012700 -2.626500
v -8.470700 0.007000 -4.943400
v -5.077700 0.010300 -9.303500
v -4.289300 0.007000 -5.783900
v -8.470700 0.007000 -4.943400
v -4.289300 0.007000 -5.783900
v -8.630900 -0.012700 -2.626500
v -3.824800 -0.012700 -3.862800
v -4.289300 0.007000 -5.783900
v -4.088400 -0.032300 -5.624500
v -8.630900 -0.012700 -2.626500
v -8.721800 -0.032300 -4.695100
v -8.470700 0.007000 -4.943400
v -3.824800 -0.012700 -3.862800
v -7.664100 0.007000 0.862300
v -8.630900 -0.012700 -2.626500

vn -0.014100 0.271700 -0.962300
vn 0.788900 0.285400 -0.544300
vn 0.753500 0.223900 -0.618200
vn -0.006000 0.162300 -0.986700
vn -0.772000 0.126500 -0.622900
vn -0.816800 0.185000 -0.546500
vn 0.984000 0.044700 0.172700
vn 0.021100 0.208300 0.977800
vn 0.903000 0.424200 -0.068000
vn -0.274700 0.172900 0.945900
vn -0.981500 -0.100100 0.163000
vn -0.965300 0.226400 -0.129900
vn -0.421000 -0.368000 0.829100
vn -0.995000 -0.099700 0.000800
vn 0.972500 -0.162300 -0.167100
vn 0.437000 -0.361600 0.823600
vn 0.949800 -0.072700 -0.304300
vn -0.612000 -0.585900 0.531200
vn 0.827800 0.313100 0.465500
vn -0.873700 0.265100 0.407900
vn 0.337400 0.222900 0.914600
vn -0.901800 -0.408500 -0.141100
vn 0.861000 -0.001200 0.508700
vn 0.940400 -0.037600 -0.338100
vn 0.688500 0.213400 0.693100
vn 0.688500 0.213400 0.693100
vn 0.688500 0.213400 0.693100
vn 0.777900 0.373200 0.505600
vn 0.777900 0.373200 0.505600
vn 0.777900 0.373200 0.505600
vn -0.901800 -0.408500 -0.141100
vn 0.190100 -0.237100 -0.952700
vn 0.015000 -0.267700 -0.963400
vn 0.903000 0.424200 -0.068000
vn 0.774800 0.591400 -0.223500
vn 0.108000 0.614800 -0.781200
vn -0.576400 0.704500 -0.414100
vn -0.965300 0.226400 -0.129900
vn 0.827800 0.313100 0.465500
vn -0.328000 0.905000 -0.271000
vn -0.450600 0.389700 -0.803200
vn -0.975900 0.067100 -0.207800
vn 0.457100 0.739900 -0.493600
vn 0.713000 0.214600 -0.667500
vn -0.607900 -0.474300 -0.636800
vn 0.369000 -0.313100 -0.875100
vn -0.612000 -0.585900 0.531200
vn -0.995000 -0.099700 0.000800
vn 0.972500 -0.162300 -0.167100
vn 0.940400 -0.037600 -0.338100
vn 0.041000 -0.167300 -0.985100
vn 0.041000 -0.167300 -0.985100
vn 0.984000 0.044700 0.172700
vn -0.981500 -0.100100 0.163000
vn -0.873700 0.265100 0.407900
vn -0.988800 0.066800 -0.133600
vn 0.982300 0.120400 0.143400
vn 0.792100 0.589900 -0.156700
vn 0.972900 0.229800 -0.025200
vn 0.474300 0.841600 -0.258400
vn -0.538300 0.105300 -0.836200
vn 0.949800 -0.072700 -0.304300
vn -0.981500 -0.100100 0.163000
vn 0.950500 0.290800 -0.109400
vn -0.823200 0.493400 -0.281000
vn -0.984800 0.090400 -0.148400
vn -0.640500 0.076800 -0.764100
vn -0.640500 0.076800 -0.764100
vn -0.640500 0.076800 -0.764100
vn -0.629100 0.077700 -0.773400
vn -0.629100 0.077700 -0.773400
vn -0.629100 0.077700 -0.773400
vn 0.221900 0.599600 -0.768900
vn 0.221900 0.599600 -0.768900
vn 0.221900 0.599600 -0.768900
vn 0.211600 0.648700 -0.731100
vn 0.211600 0.648700 -0.731100
vn 0.211600 0.648700 -0.731100
vn 0.703900 0.209100 -0.678800
vn 0.703900 0.209100 -0.678800
vn 0.703900 0.209100 -0.678800
vn 0.669600 0.188100 -0.718500
vn 0.669600 0.188100 -0.718500
vn 0.669600 0.188100 -0.718500
vn 0.861000 -0.001200 0.508700
vn 0.984000 0.044700 0.172700
vn 0.000700 -1.000000 -0.001300
vn 0.000700 -1.000000 -0.001300
vn 0.000700 -1.000000 -0.001300
vn -0.000400 -1.000000 0.003200
vn -0.000400 -1.000000 0.003200
vn -0.000400 -1.000000 0.003200
vn 0.002300 -1.000000 0.002300
vn 0.002300 -1.000000 0.002300
vn 0.002300 -1.000000 0.002300
vn 0.002500 -1.000000 -0.009600
vn 0.002500 -1.000000 -0.009600
vn 0.002500 -1.000000 -0.009600
vn 0.000200 -1.000000 -0.000900
vn 0.000200 -1.000000 -0.000900
vn 0.000200 -1.000000 -0.000900
vn 0.001700 -1.000000 -0.008600
vn 0.001700 -1.000000 -0.008600
vn 0.001700 -1.000000 -0.008600
vn 0.226000 -0.973100 0.044700
vn 0.226000 -0.973100 0.044700
vn 0.226000 -0.973100 0.044700
vn -0.157100 -0.987600 0.002500
vn -0.157100 -0.987600 0.002500
vn -0.157100 -0.987600 0.002500
vn -0.001300 -1.000000 0.005300
vn -0.001300 -1.000000 0.005300
vn -0.001300 -1.000000 0.005300
vn 0.014100 0.271700 -0.962300
vn -0.753500 0.223900 -0.618200
vn -0.788900 0.285400 -0.544300
vn 0.006000 0.162300 -0.986700
vn 0.772000 0.126500 -0.622900
vn 0.816800 0.185000 -0.546500
vn -0.984000 0.044700 0.172700
vn -0.903000 0.424200 -0.068000
vn -0.021100 0.208300 0.977800
vn 0.274700 0.172900 0.945900
vn 0.965300 0.226400 -0.129900
vn 0.981500 -0.100100 0.163000
vn 0.995000 -0.099700 0.000800
vn 0.421000 -0.368000 0.829000
vn -0.972500 -0.162300 -0.167100
vn -0.437000 -0.361600 0.823600
vn -0.949800 -0.072700 -0.304300
vn 0.612000 -0.585900 0.531200
vn -0.827800 0.313100 0.465500
vn 0.873700 0.265100 0.407900
vn -0.337400 0.222900 0.914600
vn 0.901800 -0.408500 -0.141100
vn -0.861000 -0.001200 0.508700
vn -0.940400 -0.037600 -0.338100
vn -0.688500 0.213400 0.693100
vn -0.688500 0.213400 0.693100
vn -0.688500 0.213400 0.693100
vn -0.777900 0.373200 0.505600
vn -0.777900 0.373200 0.505600
vn -0.777900 0.373200 0.505600
vn 0.901800 -0.408500 -0.141100
vn -0.015000 -0.267700 -0.963400
vn -0.190100 -0.237100 -0.952700
vn -0.903000 0.424200 -0.068000
vn -0.108000 0.614800 -0.781200
vn -0.774800 0.591400 -0.223500
vn 0.576400 0.704500 -0.414100
vn 0.965300 0.226400 -0.129900
vn -0.827800 0.313100 0.465500
vn 0.328000 0.905000 -0.271000
vn 0.975900 0.067100 -0.207800
vn 0.450600 0.389700 -0.803200
vn -0.713000 0.214600 -0.667500
vn -0.457100 0.739900 -0.493600
vn 0.607900 -0.474300 -0.636800
vn -0.369000 -0.313100 -0.875100
vn 0.612000 -0.585900 0.531200
vn 0.995000 -0.099700 0.000800
vn -0.972500 -0.162300 -0.167100
vn -0.940400 -0.037600 -0.338100
vn -0.041000 -0.167300 -0.985100
vn -0.041000 -0.167300 -0.985100
vn -0.984000 0.044700 0.172700
vn 0.981500 -0.100100 0.163000
vn 0.873700 0.265100 0.407900
vn 0.988800 0.066800 -0.133600
vn -0.982300 0.120400 0.143400
vn -0.792100 0.589900 -0.156700
vn -0.474300 0.841600 -0.258400
vn -0.972900 0.229800 -0.025200
vn 0.538300 0.105300 -0.836200
vn -0.949800 -0.072700 -0.304300
vn 0.981500 -0.100100 0.163000
vn -0.950500 0.290700 -0.109400
vn 0.823200 0.493400 -0.281000
vn 0.984800 0.090400 -0.148400
vn 0.640500 0.076800 -0.764100
vn 0.640500 0.076800 -0.764100
vn 0.640500 0.076800 -0.764100
vn 0.629100 0.077700 -0.773400
vn 0.629100 0.077700 -0.773400
vn 0.629100 0.077700 -0.773400
vn -0.221900 0.599600 -0.768900
vn -0.221900 0.599600 -0.768900
vn -0.221900 0.599600 -0.768900
vn -0.211600 0.648700 -0.731100
vn -0.211600 0.648700 -0.731100
vn -0.211600 0.648700 -0.731100
vn -0.703900 0.209100 -0.678800
vn -0.703900 0.209100 -0.678800
vn -0.703900 0.209100 -0.678800
vn -0.669600 0.188100 -0.718500
vn -0.669600 0.188100 -0.718500
vn -0.669600 0.188100 -0.718500
vn -0.861000 -0.001200 0.508700
vn -0.984000 0.044700 0.172700
vn -0.000700 -1.000000 -0.001300
vn -0.000700 -1.000000 -0.001300
vn -0.000700 -1.000000 -0.001300
vn 0.000400 -1.000000 0.003200
vn 0.000400 -1.000000 0.003200
vn 0.000400 -1.000000 0.003200
vn -0.002300 -1.000000 0.002300
vn -0.002300 -1.000000 0.002300
vn -0.002300 -1.000000 0.002300
vn -0.002500 -1.000000 -0.009600
vn -0.002500 -1.000000 -0.009600
vn -0.002500 -1.000000 -0.009600
vn -0.000200 -1.000000 -0.000900
vn -0.000200 -1.000000 -0.000900
vn -0.000200 -1.000000 -0.000900
vn -0.001700 -1.000000 -0.008600
vn -0.001700 -1.000000 -0.008600
vn -0.001700 -1.000000 -0.008600
vn -0.226000 -0.973100 0.044700
vn -0.226000 -0.973100 0.044700
vn -0.226000 -0.973100 0.044700
vn 0.157100 -0.987600 0.002500
vn 0.157100 -0.987600 0.002500
vn 0.157100 -0.987600 0.002500
vn 0.001300 -1.000000 0.005300
vn 0.001300 -1.000000 0.005300
vn 0.001300 -1.000000 0.005300

vt 0.770600 0.245200
vt 0.839100 0.234600
vt 0.848400 0.182300
vt 0.771600 0.179100
vt 0.691000 0.195600
vt 0.700400 0.242900
vt 0.887000 0.232100
vt 0.931800 0.159300
vt 0.900800 0.162500
vt 0.942100 0.259000
vt 0.998800 0.226200
vt 0.972400 0.156700
vt 0.949400 0.324000
vt 0.980200 0.264300
vt 0.881800 0.325900
vt 0.946400 0.371300
vt 0.869500 0.409600
vt 0.993200 0.379800
vt 0.885100 0.112700
vt 0.981300 0.079900
vt 0.928300 0.080500
vt 0.976500 0.309100
vt 0.891200 0.079900
vt 0.893300 0.276900
vt 0.881800 0.325900
vt 0.949400 0.324000
vt 0.893300 0.276900
vt 0.942100 0.259000
vt 0.893300 0.276900
vt 0.949400 0.324000
vt 0.700800 0.331900
vt 0.770000 0.352400
vt 0.767900 0.299400
vt 0.837400 0.131800
vt 0.841600 0.099000
vt 0.774600 0.135200
vt 0.723400 0.099600
vt 0.707100 0.126200
vt 0.873200 0.102800
vt 0.736900 0.051700
vt 0.749800 0.021900
vt 0.732200 0.023400
vt 0.834800 0.019000
vt 0.843100 0.002400
vt 0.672300 0.419400
vt 0.763400 0.443600
vt 0.667400 0.377200
vt 0.712100 0.298600
vt 0.849000 0.328700
vt 0.834900 0.292300
vt 0.770600 0.245200
vt 0.770900 0.195500
vt 0.842300 0.205000
vt 0.700400 0.242900
vt 0.687400 0.088200
vt 0.699200 0.060300
vt 0.873900 0.064900
vt 0.840100 0.051700
vt 0.861600 0.040600
vt 0.841300 0.061100
vt 0.743900 0.002400
vt 0.868700 0.407100
vt 0.702400 0.195700
vt 0.856200 0.030200
vt 0.731300 0.063800
vt 0.716800 0.043100
vt 0.732200 0.023400
vt 0.731300 0.063800
vt 0.736900 0.051700
vt 0.731300 0.063800
vt 0.732200 0.023400
vt 0.716800 0.043100
vt 0.736900 0.051700
vt 0.841300 0.061100
vt 0.840100 0.051700
vt 0.841300 0.061100
vt 0.736900 0.051700
vt 0.731300 0.063800
vt 0.840100 0.051700
vt 0.861600 0.040600
vt 0.856200 0.030200
vt 0.861600 0.040600
vt 0.840100 0.051700
vt 0.841300 0.061100
vt 0.890100 0.079800
vt 0.839100 0.234600
vt 0.982300 0.050600
vt 0.958700 0.063300
vt 0.970600 0.011500
vt 0.925900 0.006000
vt 0.891600 0.044300
vt 0.881000 0.013500
vt 0.925900 0.006000
vt 0.914000 0.064200
vt 0.891600 0.044300
vt 0.941800 0.008200
vt 0.943500 0.069800
vt 0.925900 0.006000
vt 0.958700 0.063300
vt 0.941800 0.008200
vt 0.970600 0.011500
vt 0.958700 0.063300
vt 0.943500 0.069800
vt 0.941800 0.008200
vt 0.925900 0.006000
vt 0.939600 0.005900
vt 0.941800 0.008200
vt 0.943500 0.069800
vt 0.958700 0.063300
vt 0.958400 0.066900
vt 0.925900 0.006000
vt 0.943500 0.069800
vt 0.914000 0.064200
vt 0.770600 0.245200
vt 0.848400 0.182300
vt 0.839100 0.234600
vt 0.771600 0.179100
vt 0.691000 0.195600
vt 0.700400 0.242900
vt 0.887000 0.232100
vt 0.900800 0.162500
vt 0.931800 0.159300
vt 0.942100 0.259000
vt 0.972400 0.156700
vt 0.998800 0.226200
vt 0.980200 0.264300
vt 0.949400 0.324000
vt 0.881800 0.325900
vt 0.946400 0.371300
vt 0.869500 0.409600
vt 0.993200 0.379800
vt 0.885100 0.112700
vt 0.981300 0.079900
vt 0.928300 0.080500
vt 0.976500 0.309100
vt 0.891200 0.079900
vt 0.893300 0.276900
vt 0.881800 0.325900
vt 0.893300 0.276900
vt 0.949400 0.324000
vt 0.942100 0.259000
vt 0.949400 0.324000
vt 0.893300 0.276900
vt 0.700800 0.331900
vt 0.767900 0.299400
vt 0.770000 0.352400
vt 0.837400 0.131800
vt 0.774600 0.135200
vt 0.841600 0.099000
vt 0.723400 0.099600
vt 0.707100 0.126200
vt 0.873200 0.102800
vt 0.736900 0.051700
vt 0.732200 0.023400
vt 0.749800 0.021900
vt 0.843100 0.002400
vt 0.834800 0.019000
vt 0.672300 0.419400
vt 0.763400 0.443600
vt 0.667400 0.377200
vt 0.712100 0.298600
vt 0.849000 0.328700
vt 0.834900 0.292300
vt 0.770600 0.245200
vt 0.770900 0.195500
vt 0.842300 0.205000
vt 0.700400 0.242900
vt 0.687400 0.088200
vt 0.699200 0.060300
vt 0.873900 0.064900
vt 0.840100 0.051700
vt 0.841300 0.061100
vt 0.861600 0.040600
vt 0.743900 0.002400
vt 0.868700 0.407100
vt 0.702400 0.195700
vt 0.856200 0.030200
vt 0.731300 0.063800
vt 0.716800 0.043100
vt 0.732200 0.023400
vt 0.736900 0.051700
vt 0.731300 0.063800
vt 0.731300 0.063800
vt 0.716800 0.043100
vt 0.732200 0.023400
vt 0.736900 0.051700
vt 0.840100 0.051700
vt 0.841300 0.061100
vt 0.841300 0.061100
vt 0.731300 0.063800
vt 0.736900 0.051700
vt 0.840100 0.051700
vt 0.856200 0.030200
vt 0.861600 0.040600
vt 0.861600 0.040600
vt 0.841300 0.061100
vt 0.840100 0.051700
vt 0.890100 0.079800
vt 0.839100 0.234600
vt 0.982300 0.050600
vt 0.970600 0.011500
vt 0.958700 0.063300
vt 0.925900 0.006000
vt 0.881000 0.013500
vt 0.891600 0.044300
vt 0.925900 0.006000
vt 0.891600 0.044300
vt 0.914000 0.064200
vt 0.941800 0.008200
vt 0.925900 0.006000
vt 0.943500 0.069800
vt 0.958700 0.063300
vt 0.970600 0.011500
vt 0.941800 0.008200
vt 0.958700 0.063300
vt 0.941800 0.008200
vt 0.943500 0.069800
vt 0.925900 0.006000
vt 0.941800 0.008200
vt 0.939600 0.005900
vt 0.943500 0.069800
vt 0.958400 0.066900
vt 0.958700 0.063300
vt 0.925900 0.006000
vt 0.914000 0.064200
vt 0.943500 0.069800

g defaultobject
usemtl 0_kn_boots_17
f 1/1/1 2/2/2 3/3/3
f 3/3/3 4/4/4 1/1/1
f 5/5/5 1/1/1 4/4/4
f 1/1/1 5/5/5 6/6/6
f 7/7/7 8/8/8 9/9/9
f 7/7/7 10/10/10 8/8/8
f 8/8/8 11/11/11 12/12/12
f 8/8/8 10/10/10 11/11/11
f 10/10/10 13/13/13 14/14/14
f 15/15/15 16/16/16 13/13/13
f 15/15/15 17/17/17 16/16/16
f 16/16/16 18/18/18 13/13/13
f 11/11/11 10/10/10 14/14/14
f 19/19/19 9/9/9 8/8/8
f 12/12/12 20/20/20 8/8/8
f 20/20/20 21/21/21 8/8/8
f 13/13/13 18/18/18 22/22/22
f 21/21/21 23/23/23 19/19/19
f 8/8/8 21/21/21 19/19/19
f 10/10/10 7/7/7 24/24/24
f 14/14/14 13/13/13 22/22/22
f 25/25/25 26/26/26 27/27/27
f 28/28/28 29/29/29 30/30/30
f 31/31/31 32/32/32 33/33/33
f 34/34/34 35/35/35 36/36/36
f 37/37/37 38/38/38 36/36/36
f 37/37/37 36/36/36 35/35/35
f 34/34/34 39/39/39 35/35/35
f 40/40/40 41/41/41 42/42/42
f 41/41/41 43/43/43 44/44/44
f 45/45/45 46/46/46 32/32/32
f 47/47/47 45/45/45 31/31/31
f 33/33/33 48/48/48 31/31/31
f 32/32/32 49/49/49 33/33/33
f 50/50/50 51/51/51 33/33/33
f 52/52/52 53/53/53 34/34/34
f 38/38/38 52/52/52 36/36/36
f 49/49/49 50/50/50 33/33/33
f 51/51/51 54/54/54 48/48/48
f 55/55/55 37/37/37 56/56/56
f 55/55/55 38/38/38 37/37/37
f 39/39/39 57/57/57 35/35/35
f 58/58/58 43/43/43 40/40/40
f 35/35/35 59/59/59 60/60/60
f 41/41/41 44/44/44 61/61/61
f 32/32/32 62/62/62 49/49/49
f 32/32/32 46/46/46 62/62/62
f 31/31/31 45/45/45 32/32/32
f 52/52/52 34/34/34 36/36/36
f 38/38/38 63/63/63 52/52/52
f 64/64/64 44/44/44 58/58/58
f 37/37/37 35/35/35 60/60/60
f 56/56/56 37/37/37 65/65/65
f 35/35/35 57/57/57 59/59/59
f 37/37/37 60/60/60 65/65/65
f 58/58/58 44/44/44 43/43/43
f 56/56/56 65/65/65 66/66/66
f 40/40/40 43/43/43 41/41/41
f 42/42/42 41/41/41 61/61/61
f 67/67/67 68/68/68 69/69/69
f 70/70/70 71/71/71 72/72/72
f 73/73/73 74/74/74 75/75/75
f 76/76/76 77/77/77 78/78/78
f 79/79/79 80/80/80 81/81/81
f 82/82/82 83/83/83 84/84/84
f 85/85/85 57/57/57 39/39/39
f 50/50/50 86/86/86 51/51/51
f 51/51/51 48/48/48 33/33/33
f 87/87/87 88/88/88 89/89/89
f 90/90/90 91/91/91 92/92/92
f 93/93/93 94/94/94 95/95/95
f 96/96/96 97/97/97 98/98/98
f 99/99/99 100/100/100 101/101/101
f 102/102/102 103/103/103 104/104/104
f 105/105/105 106/106/106 107/107/107
f 108/108/108 109/109/109 110/110/110
f 111/111/111 112/112/112 113/113/113
f 114/114/114 115/115/115 116/116/116
f 115/115/115 114/114/114 117/117/117
f 118/118/118 117/117/117 114/114/114
f 114/114/114 119/119/119 118/118/118
f 120/120/120 121/121/121 122/122/122
f 120/120/120 122/122/122 123/123/123
f 122/122/122 124/124/124 125/125/125
f 122/122/122 125/125/125 123/123/123
f 123/123/123 126/126/126 127/127/127
f 128/128/128 127/127/127 129/129/129
f 128/128/128 129/129/129 130/130/130
f 129/129/129 127/127/127 131/131/131
f 125/125/125 126/126/126 123/123/123
f 132/132/132 122/122/122 121/121/121
f 124/124/124 122/122/122 133/133/133
f 133/133/133 122/122/122 134/134/134
f 127/127/127 135/135/135 131/131/131
f 134/134/134 132/132/132 136/136/136
f 122/122/122 132/132/132 134/134/134
f 123/123/123 137/137/137 120/120/120
f 126/126/126 135/135/135 127/127/127
f 138/138/138 139/139/139 140/140/140
f 141/141/141 142/142/142 143/143/143
f 144/144/144 145/145/145 146/146/146
f 147/147/147 148/148/148 149/149/149
f 150/150/150 148/148/148 151/151/151
f 150/150/150 149/149/149 148/148/148
f 147/147/147 149/149/149 152/152/152
f 153/153/153 154/154/154 155/155/155
f 155/155/155 156/156/156 157/157/157
f 158/158/158 146/146/146 159/159/159
f 160/160/160 144/144/144 158/158/158
f 145/145/145 144/144/144 161/161/161
f 146/146/146 145/145/145 162/162/162
f 163/163/163 145/145/145 164/164/164
f 165/165/165 147/147/147 166/166/166
f 151/151/151 148/148/148 165/165/165
f 162/162/162 145/145/145 163/163/163
f 164/164/164 161/161/161 167/167/167
f 168/168/168 169/169/169 150/150/150
f 168/168/168 150/150/150 151/151/151
f 152/152/152 149/149/149 170/170/170
f 171/171/171 153/153/153 157/157/157
f 149/149/149 172/172/172 173/173/173
f 155/155/155 174/174/174 156/156/156
f 146/146/146 162/162/162 175/175/175
f 146/146/146 175/175/175 159/159/159
f 144/144/144 146/146/146 158/158/158
f 165/165/165 148/148/148 147/147/147
f 151/151/151 165/165/165 176/176/176
f 177/177/177 171/171/171 156/156/156
f 150/150/150 172/172/172 149/149/149
f 169/169/169 178/178/178 150/150/150
f 149/149/149 173/173/173 170/170/170
f 150/150/150 178/178/178 172/172/172
f 171/171/171 157/157/157 156/156/156
f 169/169/169 179/179/179 178/178/178
f 153/153/153 155/155/155 157/157/157
f 154/154/154 174/174/174 155/155/155
f 180/180/180 181/181/181 182/182/182
f 183/183/183 184/184/184 185/185/185
f 186/186/186 187/187/187 188/188/188
f 189/189/189 190/190/190 191/191/191
f 192/192/192 193/193/193 194/194/194
f 195/195/195 196/196/196 197/197/197
f 198/198/198 152/152/152 170/170/170
f 163/163/163 164/164/164 199/199/199
f 164/164/164 145/145/145 161/161/161
f 200/200/200 201/201/201 202/202/202
f 203/203/203 204/204/204 205/205/205
f 206/206/206 207/207/207 208/208/208
f 209/209/209 210/210/210 211/211/211
f 212/212/212 213/213/213 214/214/214
f 215/215/215 216/216/216 217/217/217
f 218/218/218 219/219/219 220/220/220
f 221/221/221 222/222/222 223/223/223
f 224/224/224 225/225/225 226/226/226
