# item 213 - h

mtllib 0_kn_pants_17.mtl

v 2.581800 36.601799 -0.989200
v 4.130100 36.665100 -2.593700
v -0.000000 32.318501 1.102400
v -0.000000 36.770401 -0.358300
v 5.154100 34.202400 -3.309100
v 3.690700 22.609699 1.536600
v 1.104600 22.505199 1.042400
v 6.258000 24.546499 -1.997100
v 6.195900 18.301701 -1.334500
v 4.138700 18.976200 0.747500
v 2.412800 18.056499 -1.314900
v 5.154100 34.202400 -3.309100
v 2.909000 30.702999 -5.401700
v 2.650900 36.770699 -4.149300
v 4.130100 36.665100 -2.593700
v 0.000000 34.174301 -5.941300
v 0.000000 36.883099 -5.286000
v 1.179800 23.499100 -4.977500
v 3.560300 24.679100 -5.496500
v 4.256500 19.125700 -3.638400
v 6.258000 24.546499 -1.997100
v 1.104600 22.505199 1.042400
v 6.195900 18.301701 -1.334500
v 2.412800 18.056499 -1.314900
v -2.581800 36.601799 -0.989200
v -4.130100 36.665100 -2.593700
v -5.154100 34.202400 -3.309100
v -3.690700 22.609699 1.536600
v -1.104600 22.505199 1.042500
v -6.258000 24.546499 -1.997100
v -6.195900 18.301701 -1.334500
v -4.138700 18.976200 0.747600
v -2.412800 18.056499 -1.314900
v -5.154100 34.202400 -3.309100
v -2.909000 30.702999 -5.401800
v -4.130100 36.665100 -2.593700
v -2.650900 36.770699 -4.149300
v -1.179800 23.499100 -4.977500
v -4.256500 19.125700 -3.638400
v -3.560300 24.679100 -5.496600
v -6.258000 24.546499 -1.997100
v -1.104600 22.505199 1.042500
v -6.195900 18.301701 -1.334500
v -2.412800 18.056499 -1.314900
v 2.930200 32.314701 0.937900
v 2.930200 32.314701 0.937900
v 2.930200 32.314701 0.937900
v 2.930200 32.314701 0.937900
v 0.000000 29.397200 0.511900
v 2.930200 32.314701 0.937900
v 2.930200 32.314701 0.937900
v 5.637400 30.964399 -3.011900
v 2.930200 32.314701 0.937900
v 3.203500 29.072701 0.841200
v 5.637400 30.964399 -3.011900
v 3.203500 29.072701 0.841200
v 2.930200 32.314701 0.937900
v 0.000000 29.397200 0.511900
v 3.203500 29.072701 0.841200
v 0.000000 29.397200 0.511900
v 0.000000 29.397200 0.511900
v 5.637400 30.964399 -3.011900
v 3.203500 29.072701 0.841200
v 5.637400 30.964399 -3.011900
v 2.344300 34.188099 -5.433000
v 5.637400 30.964399 -3.011900
v 2.344300 34.188099 -5.433000
v 0.000000 29.782900 -4.714500
v 2.344300 34.188099 -5.433000
v 0.000000 29.397200 0.511900
v -2.930200 32.314701 0.937900
v -5.637400 30.964399 -3.011900
v -3.203500 29.072701 0.841200
v -2.344300 34.188099 -5.433000
v -5.637400 30.964399 -3.011900

vn 0.468200 0.393700 0.791100
vn 0.882700 0.405900 0.236900
vn 0.000000 0.058800 0.998300
vn 0.000000 0.369100 0.929400
vn 0.880100 0.263200 -0.395200
vn 0.429200 0.033000 0.902600
vn -0.805300 -0.272200 0.526600
vn 0.986900 0.006900 -0.161300
vn 0.958400 -0.038200 0.282900
vn -0.002800 -0.327100 0.945000
vn -0.833700 -0.551900 -0.016000
vn 0.880100 0.263200 -0.395200
vn 0.233200 0.027500 -0.972000
vn 0.467500 0.358600 -0.807900
vn 0.882700 0.405900 0.236900
vn 0.000000 0.135200 -0.990800
vn 0.000000 0.235100 -0.972000
vn -0.603300 -0.272400 -0.749500
vn 0.450100 -0.085000 -0.888900
vn 0.305400 -0.330400 -0.893000
vn 0.986900 0.006900 -0.161300
vn -0.805300 -0.272200 0.526600
vn 0.958400 -0.038200 0.282900
vn -0.833700 -0.551900 -0.016000
vn -0.468200 0.393700 0.791100
vn -0.882700 0.405900 0.236900
vn -0.880100 0.263200 -0.395200
vn -0.429200 0.033000 0.902600
vn 0.805300 -0.272200 0.526600
vn -0.986900 0.006900 -0.161300
vn -0.958400 -0.038200 0.282900
vn 0.002800 -0.327100 0.945000
vn 0.833700 -0.551900 -0.016000
vn -0.880100 0.263200 -0.395200
vn -0.233200 0.027500 -0.972000
vn -0.882700 0.405900 0.236900
vn -0.467500 0.358600 -0.807900
vn 0.603300 -0.272400 -0.749500
vn -0.305400 -0.330400 -0.893000
vn -0.450100 -0.085000 -0.888900
vn -0.986900 0.006900 -0.161300
vn 0.805300 -0.272200 0.526600
vn -0.958400 -0.038200 0.282900
vn 0.833700 -0.551900 -0.016000
vn 0.483700 0.178500 0.856800
vn 0.483700 0.178500 0.856800
vn 0.483700 0.178500 0.856800
vn 0.483700 0.178500 0.856800
vn 0.000000 -0.063600 0.998000
vn 0.483700 0.178500 0.856800
vn 0.483700 0.178500 0.856800
vn 0.993000 0.114300 0.030200
vn 0.483700 0.178500 0.856800
vn 0.420500 0.069100 0.904600
vn 0.993000 0.114300 0.030200
vn 0.420500 0.069100 0.904600
vn 0.483700 0.178500 0.856800
vn 0.000000 -0.063600 0.998000
vn 0.420500 0.069100 0.904600
vn 0.000000 -0.063600 0.998000
vn 0.000000 -0.063600 0.998000
vn 0.993000 0.114300 0.030200
vn 0.420500 0.069100 0.904600
vn 0.993000 0.114300 0.030200
vn 0.294400 0.111300 -0.949200
vn 0.993000 0.114300 0.030200
vn 0.294400 0.111300 -0.949200
vn 0.000000 -0.215900 -0.976400
vn 0.294400 0.111300 -0.949200
vn 0.000000 -0.063600 0.998000
vn -0.483700 0.178500 0.856800
vn -0.993000 0.114300 0.030200
vn -0.420500 0.069100 0.904600
vn -0.294400 0.111300 -0.949200
vn -0.993000 0.114300 0.030200

vt 0.944800 0.678600
vt 0.881900 0.679200
vt 0.988600 0.622600
vt 0.988600 0.680900
vt 0.881900 0.647000
vt 0.926100 0.495400
vt 0.969900 0.494000
vt 0.881900 0.520400
vt 0.881900 0.438600
vt 0.918500 0.447800
vt 0.947700 0.435800
vt 0.881800 0.646200
vt 0.831800 0.600100
vt 0.828200 0.679700
vt 0.881800 0.678500
vt 0.791400 0.645600
vt 0.791400 0.681100
vt 0.807800 0.505600
vt 0.840800 0.521000
vt 0.850500 0.448200
vt 0.881900 0.519700
vt 0.785500 0.479400
vt 0.881900 0.437800
vt 0.824900 0.434200
vt 0.944800 0.678600
vt 0.881900 0.679200
vt 0.881900 0.647000
vt 0.926100 0.495400
vt 0.969900 0.494000
vt 0.881900 0.520400
vt 0.881900 0.438600
vt 0.918500 0.447800
vt 0.947700 0.435800
vt 0.881800 0.646200
vt 0.831800 0.600100
vt 0.881800 0.678500
vt 0.828200 0.679700
vt 0.807800 0.505600
vt 0.850500 0.448200
vt 0.840800 0.521000
vt 0.881900 0.519700
vt 0.785500 0.479400
vt 0.881900 0.437800
vt 0.824900 0.434200
vt 0.939000 0.622500
vt 0.939000 0.622500
vt 0.939000 0.622500
vt 0.939000 0.622500
vt 0.988600 0.584300
vt 0.939000 0.622500
vt 0.939000 0.622500
vt 0.881900 0.604500
vt 0.939000 0.622500
vt 0.934300 0.580100
vt 0.881900 0.604500
vt 0.934300 0.580100
vt 0.939000 0.622500
vt 0.988600 0.584300
vt 0.934300 0.580100
vt 0.988600 0.584300
vt 0.988600 0.584300
vt 0.881900 0.604500
vt 0.934300 0.580100
vt 0.881900 0.604500
vt 0.823900 0.645800
vt 0.881800 0.603900
vt 0.823900 0.645800
vt 0.791400 0.588000
vt 0.823900 0.645800
vt 0.770200 0.569800
vt 0.939000 0.622500
vt 0.881900 0.604500
vt 0.934300 0.580100
vt 0.823900 0.645800
vt 0.881800 0.603900

g defaultobject
usemtl 0_kn_pants_17
f 1/1/1 45/45/45 2/2/2
f 3/3/3 46/46/46 4/4/4
f 4/4/4 47/47/47 1/1/1
f 2/2/2 48/48/48 5/5/5
f 49/49/49 50/50/50 3/3/3
f 51/51/51 52/52/52 5/5/5
f 53/53/53 54/54/54 55/55/55
f 56/56/56 57/57/57 58/58/58
f 59/59/59 60/60/60 6/6/6
f 6/6/6 61/61/61 7/7/7
f 6/6/6 62/62/62 63/63/63
f 6/6/6 8/8/8 64/64/64
f 9/9/9 6/6/6 10/10/10
f 9/9/9 8/8/8 6/6/6
f 10/10/10 7/7/7 11/11/11
f 6/6/6 7/7/7 10/10/10
f 12/12/12 13/13/13 65/65/65
f 12/12/12 66/66/66 13/13/13
f 67/67/67 13/13/13 68/68/68
f 12/12/12 14/14/14 15/15/15
f 12/12/12 69/69/69 14/14/14
f 16/16/16 17/17/17 14/14/14
f 16/16/16 65/65/65 68/68/68
f 16/16/16 14/14/14 65/65/65
f 18/18/18 19/19/19 20/20/20
f 18/18/18 13/13/13 19/19/19
f 18/18/18 68/68/68 13/13/13
f 19/19/19 66/66/66 21/21/21
f 19/19/19 13/13/13 66/66/66
f 22/22/22 68/68/68 18/18/18
f 22/22/22 70/70/70 68/68/68
f 20/20/20 21/21/21 23/23/23
f 20/20/20 19/19/19 21/21/21
f 22/22/22 18/18/18 24/24/24
f 24/24/24 18/18/18 20/20/20
f 25/25/25 26/26/26 71/71/71
f 3/3/3 4/4/4 71/71/71
f 4/4/4 25/25/25 71/71/71
f 26/26/26 27/27/27 71/71/71
f 49/49/49 3/3/3 71/71/71
f 71/71/71 27/27/27 72/72/72
f 71/71/71 72/72/72 73/73/73
f 73/73/73 49/49/49 71/71/71
f 73/73/73 28/28/28 49/49/49
f 28/28/28 29/29/29 49/49/49
f 28/28/28 73/73/73 72/72/72
f 28/28/28 72/72/72 30/30/30
f 31/31/31 32/32/32 28/28/28
f 31/31/31 28/28/28 30/30/30
f 32/32/32 33/33/33 29/29/29
f 28/28/28 32/32/32 29/29/29
f 34/34/34 74/74/74 35/35/35
f 34/34/34 35/35/35 75/75/75
f 74/74/74 68/68/68 35/35/35
f 34/34/34 36/36/36 37/37/37
f 34/34/34 37/37/37 74/74/74
f 16/16/16 37/37/37 17/17/17
f 16/16/16 68/68/68 74/74/74
f 16/16/16 74/74/74 37/37/37
f 38/38/38 39/39/39 40/40/40
f 38/38/38 40/40/40 35/35/35
f 38/38/38 35/35/35 68/68/68
f 40/40/40 41/41/41 75/75/75
f 40/40/40 75/75/75 35/35/35
f 42/42/42 38/38/38 68/68/68
f 42/42/42 68/68/68 70/70/70
f 39/39/39 43/43/43 41/41/41
f 39/39/39 41/41/41 40/40/40
f 42/42/42 44/44/44 38/38/38
f 44/44/44 39/39/39 38/38/38
