# item 891 - h

mtllib 2_mi_boots_16.mtl

v 5.430200 14.095400 0.927300
v 3.473300 13.822100 3.065000
v 3.672400 10.163400 1.907900
v 3.051300 4.237600 0.247100
v 3.980700 4.196200 1.600600
v 2.315100 10.120400 0.762200
v 1.401600 16.895201 0.078100
v 2.914000 17.830099 2.014100
v 4.536700 12.858500 -0.305900
v 4.896700 4.159200 0.336800
v 3.910100 4.463500 -0.812300
v 1.412800 12.783700 0.964900
v 1.722400 16.597401 -0.999400
v 1.929900 12.351100 -0.299100
v 5.057000 10.772900 0.571300
v 5.282800 4.169200 0.509900
v 2.642000 4.281300 0.227100
v 3.808200 4.209800 2.093500
v 3.771000 2.598500 -0.715200
v 3.938200 4.760000 -1.349600
v 3.096500 2.281500 0.940800
v 4.918300 2.155600 0.461500
v 1.846800 18.389299 -0.039600
v 3.224600 19.146299 0.420100
v 4.261300 17.473700 0.506400
v 3.841100 19.291201 -0.485700
v 1.355000 18.168501 -1.366400
v 3.934300 17.020599 -0.919300
v 3.124200 16.616301 -1.612400
v 3.374500 12.310300 -1.445300
v 3.271400 19.912500 -2.069800
v 2.869800 18.599001 -2.925200
v 2.107500 19.774900 -2.247400
v 2.577200 21.191700 -3.563900
v 5.183100 -0.000900 0.534900
v 4.918300 2.155600 0.461500
v 4.386700 1.157800 -6.219900
v 5.760200 -0.000100 -5.957900
v 3.109000 -0.000100 -5.936000
v 5.473400 1.193400 -5.254300
v 6.339000 -0.000100 -2.739800
v 3.709000 1.460300 -3.947800
v 2.654100 -0.000100 -3.659800
v 3.771000 2.598500 -0.715200
v 3.352600 -0.000100 -1.008900
v 2.654100 -0.000100 -3.659800
v 5.760200 -0.000100 -5.957900
v 6.339000 -0.000100 -2.739800
v 3.109000 -0.000100 -5.936000
v 3.352600 -0.000100 -1.008900
v 5.183100 -0.000900 0.534900
v 3.096500 2.281500 0.940800
v 3.234200 0.005100 1.762600
v 3.234200 0.005100 1.762600
v 4.503700 0.004500 2.394000
v 4.503700 0.004500 2.394000
v -3.400900 13.822100 3.065000
v -5.357700 14.095400 0.927300
v -3.600000 10.163400 1.907900
v -3.908200 4.196200 1.600600
v -2.978900 4.237600 0.247100
v -2.242700 10.120400 0.762200
v -1.388600 16.895201 0.078100
v -2.841500 17.830099 2.014100
v -4.824300 4.159200 0.336800
v -4.464300 12.858500 -0.305900
v -3.837700 4.463500 -0.812300
v -1.340400 12.783700 0.964900
v -1.590600 16.739100 -0.999400
v -4.984600 10.772900 0.571300
v -1.857500 12.351100 -0.299100
v -5.210400 4.169200 0.509900
v -2.569600 4.281300 0.227100
v -3.735800 4.209800 2.093500
v -3.865800 4.760000 -1.349600
v -3.698600 2.598500 -0.715200
v -3.024100 2.281500 0.940800
v -4.845900 2.155600 0.461500
v -1.846800 18.389299 -0.039600
v -3.224600 19.146299 0.420100
v -4.188900 17.473700 0.506400
v -3.841100 19.291201 -0.485700
v -1.355000 18.168501 -1.366400
v -3.051800 16.616301 -1.612400
v -3.861800 17.020599 -0.919300
v -3.302100 12.310300 -1.445300
v -3.271300 19.912500 -2.069800
v -2.797400 18.599001 -2.925200
v -2.107500 19.774900 -2.247400
v -2.504800 21.191700 -3.563900
v -5.110700 -0.000900 0.534900
v -4.845900 2.155600 0.461500
v -5.687800 -0.000100 -5.957900
v -4.314300 1.157800 -6.219900
v -3.036600 -0.000100 -5.936000
v -5.401000 1.193400 -5.254300
v -6.266600 -0.000100 -2.739800
v -2.581700 -0.000100 -3.659800
v -3.636600 1.460300 -3.947800
v -3.698600 2.598500 -0.715200
v -3.280200 -0.000100 -1.008900
v -5.687800 -0.000100 -5.957900
v -2.581700 -0.000100 -3.659800
v -6.266600 -0.000100 -2.739800
v -3.036600 -0.000100 -5.936000
v -3.280200 -0.000100 -1.008900
v -5.110700 -0.000900 0.534900
v -3.024100 2.281500 0.940800
v -3.161700 0.005100 1.762600
v -3.161700 0.005100 1.762600
v -4.431300 0.004500 2.394000
v -4.431300 0.004500 2.394000
v 4.340200 2.628600 -1.308500
v 4.340200 2.628600 -1.308500
v 4.340200 2.628600 -1.308500
v 4.063500 2.145200 1.957700
v 4.063500 2.145200 1.957700
v 4.063500 2.145200 1.957700
v 4.340200 2.628600 -1.308500
v 4.063500 2.145200 1.957700
v -4.267800 2.628600 -1.308500
v -3.991100 2.145200 1.957700
v -4.267800 2.628600 -1.308500
v -3.991100 2.145200 1.957700

vn 0.989800 0.085600 0.113500
vn 0.029500 0.019400 0.999400
vn 0.058100 -0.169100 0.983900
vn -0.481500 0.869700 0.108500
vn 0.044900 0.931200 0.361600
vn -0.885100 -0.186300 0.426400
vn -0.971900 0.059800 0.227500
vn -0.080000 0.475100 0.876300
vn 0.765000 -0.004800 -0.644100
vn 0.388000 0.893400 0.226300
vn 0.036400 0.998200 -0.047800
vn -0.950900 -0.151200 0.270000
vn -0.736600 -0.219900 -0.639600
vn -0.822600 -0.156900 -0.546600
vn 0.993900 -0.064200 0.089900
vn 0.831400 0.546000 0.103700
vn -0.842900 0.534200 -0.064900
vn -0.088200 0.557100 0.825800
vn -0.776400 -0.209800 -0.594300
vn -0.052600 0.737300 -0.673500
vn -0.941000 -0.195100 0.276400
vn 0.977000 -0.179600 0.115300
vn -0.803000 0.412500 0.430100
vn 0.329200 0.687800 0.647000
vn 0.918300 0.324600 0.226900
vn 0.979900 0.171800 -0.101800
vn -0.834400 -0.207500 -0.510600
vn 0.787000 0.131900 -0.602700
vn 0.211100 -0.178600 -0.961000
vn 0.050500 -0.057800 -0.997100
vn 0.956500 0.240400 -0.165400
vn 0.193000 -0.304700 -0.932700
vn -0.928000 0.177700 -0.327500
vn -0.073700 0.815300 -0.574400
vn 0.767600 -0.614300 0.182500
vn 0.985900 0.162300 0.041000
vn -0.123200 0.607300 -0.784900
vn 0.641500 -0.456200 -0.616800
vn -0.744900 -0.346400 -0.570200
vn 0.595100 0.743500 -0.305100
vn 0.898000 -0.431500 0.085400
vn -0.542600 0.784200 -0.301200
vn -0.882900 -0.455900 -0.112600
vn -0.919100 0.365100 -0.148100
vn -0.716900 -0.691800 0.086600
vn -0.882900 -0.455900 -0.112600
vn 0.641500 -0.456200 -0.616800
vn 0.898000 -0.431500 0.085400
vn -0.744900 -0.346400 -0.570200
vn -0.716900 -0.691800 0.086600
vn 0.767600 -0.614300 0.182500
vn -0.998200 -0.060700 -0.001000
vn -0.712900 -0.563400 0.417500
vn -0.712900 -0.563400 0.417500
vn 0.334000 -0.490200 0.805100
vn 0.334000 -0.490200 0.805100
vn -0.027300 0.021800 0.999400
vn -0.989800 0.085600 0.113500
vn -0.058100 -0.169100 0.983900
vn -0.044900 0.931200 0.361600
vn 0.481500 0.869700 0.108500
vn 0.885100 -0.186300 0.426400
vn 0.964600 0.087000 0.249100
vn 0.093200 0.474300 0.875400
vn -0.388000 0.893400 0.226300
vn -0.765000 -0.004800 -0.644100
vn -0.036400 0.998200 -0.047800
vn 0.950300 -0.149600 0.272900
vn 0.771400 -0.200900 -0.603800
vn -0.993900 -0.064200 0.089900
vn 0.821800 -0.159100 -0.547200
vn -0.831400 0.546000 0.103700
vn 0.842900 0.534200 -0.064900
vn 0.088200 0.557100 0.825800
vn 0.052600 0.737300 -0.673500
vn 0.776400 -0.209800 -0.594300
vn 0.941000 -0.195100 0.276400
vn -0.977000 -0.179600 0.115300
vn 0.804400 0.423200 0.416800
vn -0.349900 0.674000 0.650600
vn -0.921800 0.309900 0.232900
vn -0.984100 0.140100 -0.108800
vn 0.843100 -0.189700 -0.503200
vn -0.204600 -0.181100 -0.962000
vn -0.789700 0.119800 -0.601700
vn -0.050500 -0.057800 -0.997100
vn -0.957600 0.204300 -0.202900
vn -0.162500 -0.309300 -0.937000
vn 0.942300 0.192300 -0.274100
vn 0.097100 0.813900 -0.572800
vn -0.767600 -0.614300 0.182500
vn -0.985900 0.162300 0.041000
vn -0.641500 -0.456200 -0.616800
vn 0.123200 0.607300 -0.784900
vn 0.744900 -0.346400 -0.570200
vn -0.595100 0.743500 -0.305100
vn -0.898000 -0.431500 0.085400
vn 0.882900 -0.455900 -0.112600
vn 0.542600 0.784200 -0.301200
vn 0.919100 0.365100 -0.148100
vn 0.716900 -0.691800 0.086600
vn -0.641500 -0.456200 -0.616800
vn 0.882900 -0.455900 -0.112600
vn -0.898000 -0.431500 0.085400
vn 0.744900 -0.346400 -0.570200
vn 0.716900 -0.691800 0.086600
vn -0.767600 -0.614300 0.182500
vn 0.998200 -0.060700 -0.001000
vn 0.712900 -0.563400 0.417500
vn 0.712900 -0.563400 0.417500
vn -0.334000 -0.490200 0.805100
vn -0.334000 -0.490200 0.805100
vn 0.312800 -0.105800 -0.943900
vn 0.312800 -0.105800 -0.943900
vn 0.312800 -0.105800 -0.943900
vn 0.153500 -0.144100 0.977600
vn 0.153500 -0.144100 0.977600
vn 0.153500 -0.144100 0.977600
vn 0.355900 0.914800 -0.190900
vn 0.064600 0.322400 0.944400
vn -0.312800 -0.105800 -0.943900
vn -0.153500 -0.144100 0.977600
vn -0.355900 0.914800 -0.190900
vn -0.064600 0.322400 0.944400

vt 0.933700 0.312900
vt 0.993400 0.281100
vt 0.960300 0.144700
vt 0.890300 0.078900
vt 0.949800 0.073600
vt 0.925200 0.193600
vt 0.937400 0.447000
vt 0.998700 0.487000
vt 0.884900 0.287500
vt 0.893200 0.076400
vt 0.845200 0.077200
vt 0.931700 0.304900
vt 0.878600 0.432700
vt 0.884500 0.286800
vt 0.925400 0.191300
vt 0.893000 0.076700
vt 0.904400 0.073700
vt 0.966100 0.074000
vt 0.875600 0.011600
vt 0.832800 0.077400
vt 0.928000 0.011600
vt 0.912200 0.011400
vt 0.959400 0.521300
vt 0.965000 0.526000
vt 0.935400 0.446000
vt 0.876300 0.498500
vt 0.877300 0.494100
vt 0.881300 0.436000
vt 0.832300 0.404900
vt 0.838600 0.279900
vt 0.848200 0.548900
vt 0.812500 0.485200
vt 0.851100 0.551900
vt 0.824900 0.623400
vt 0.707500 0.501900
vt 0.723100 0.470600
vt 0.733500 0.302600
vt 0.704100 0.288900
vt 0.751400 0.283400
vt 0.707500 0.322200
vt 0.672300 0.369000
vt 0.751700 0.353400
vt 0.785900 0.328800
vt 0.758300 0.447200
vt 0.793400 0.462800
vt 0.869900 0.629400
vt 0.821400 0.692800
vt 0.884800 0.704000
vt 0.821400 0.640600
vt 0.922200 0.644300
vt 0.952000 0.681600
vt 0.754400 0.466700
vt 0.777800 0.505800
vt 0.978100 0.644300
vt 0.993100 0.666700
vt 0.748100 0.509200
vt 0.993400 0.281100
vt 0.933700 0.312900
vt 0.960300 0.144700
vt 0.949800 0.073600
vt 0.890300 0.078900
vt 0.925200 0.193600
vt 0.937400 0.447000
vt 0.998700 0.487000
vt 0.893200 0.076400
vt 0.884900 0.287500
vt 0.845200 0.077200
vt 0.931700 0.304900
vt 0.878600 0.432700
vt 0.925400 0.191300
vt 0.884500 0.286800
vt 0.893000 0.076700
vt 0.904400 0.073700
vt 0.966100 0.074000
vt 0.832800 0.077400
vt 0.875600 0.011600
vt 0.928000 0.011600
vt 0.912200 0.011400
vt 0.959400 0.521300
vt 0.965000 0.526000
vt 0.935400 0.446000
vt 0.876300 0.498500
vt 0.877300 0.494100
vt 0.832300 0.404900
vt 0.881300 0.436000
vt 0.838600 0.279900
vt 0.848200 0.548900
vt 0.812500 0.485200
vt 0.851100 0.551900
vt 0.824900 0.623400
vt 0.707500 0.501900
vt 0.723100 0.470600
vt 0.704100 0.288900
vt 0.733500 0.302600
vt 0.751400 0.283400
vt 0.707500 0.322200
vt 0.672300 0.369000
vt 0.785900 0.328800
vt 0.751700 0.353400
vt 0.758300 0.447200
vt 0.793400 0.462800
vt 0.821400 0.692800
vt 0.869900 0.629400
vt 0.884800 0.704000
vt 0.821400 0.640600
vt 0.922200 0.644300
vt 0.952000 0.681600
vt 0.754400 0.466700
vt 0.777800 0.505800
vt 0.978100 0.644300
vt 0.993100 0.666700
vt 0.748100 0.509200
vt 0.849500 0.012500
vt 0.849500 0.012500
vt 0.849500 0.012500
vt 0.966800 0.011100
vt 0.966800 0.011100
vt 0.966800 0.011100
vt 0.734800 0.439400
vt 0.750500 0.478400
vt 0.849500 0.012500
vt 0.966800 0.011100
vt 0.734800 0.439400
vt 0.750500 0.478400

g defaultobject
usemtl 2_mi_boots_16
f 1/1/1 2/2/2 3/3/3
f 4/4/4 5/5/5 6/6/6
f 7/7/7 2/2/2 8/8/8
f 9/9/9 10/10/10 11/11/11
f 12/12/12 13/13/13 14/14/14
f 12/12/12 3/3/3 2/2/2
f 15/15/15 10/10/10 9/9/9
f 10/10/10 15/15/15 5/5/5
f 12/12/12 2/2/2 7/7/7
f 6/6/6 14/14/14 4/4/4
f 4/4/4 14/14/14 11/11/11
f 1/1/1 3/3/3 15/15/15
f 6/6/6 5/5/5 3/3/3
f 15/15/15 3/3/3 5/5/5
f 1/1/1 15/15/15 9/9/9
f 12/12/12 14/14/14 6/6/6
f 6/6/6 3/3/3 12/12/12
f 16/16/16 10/10/10 5/5/5
f 4/4/4 17/17/17 5/5/5
f 17/17/17 18/18/18 5/5/5
f 11/11/11 10/10/10 16/16/16
f 19/19/19 20/20/20 113/113/113
f 4/4/4 11/11/11 17/17/17
f 20/20/20 17/17/17 11/11/11
f 18/18/18 16/16/16 5/5/5
f 16/16/16 20/20/20 11/11/11
f 17/17/17 20/20/20 19/19/19
f 21/21/21 17/17/17 19/19/19
f 114/114/114 20/20/20 16/16/16
f 16/16/16 22/22/22 115/115/115
f 116/116/116 18/18/18 21/21/21
f 17/17/17 21/21/21 18/18/18
f 22/22/22 16/16/16 117/117/117
f 18/18/18 118/118/118 16/16/16
f 23/23/23 8/8/8 24/24/24
f 25/25/25 24/24/24 8/8/8
f 8/8/8 23/23/23 7/7/7
f 24/24/24 25/25/25 26/26/26
f 7/7/7 23/23/23 27/27/27
f 28/28/28 29/29/29 26/26/26
f 27/27/27 29/29/29 13/13/13
f 9/9/9 11/11/11 30/30/30
f 14/14/14 30/30/30 11/11/11
f 1/1/1 25/25/25 2/2/2
f 2/2/2 25/25/25 8/8/8
f 25/25/25 1/1/1 28/28/28
f 25/25/25 28/28/28 26/26/26
f 9/9/9 30/30/30 29/29/29
f 31/31/31 26/26/26 32/32/32
f 14/14/14 29/29/29 30/30/30
f 27/27/27 33/33/33 32/32/32
f 7/7/7 27/27/27 13/13/13
f 1/1/1 9/9/9 28/28/28
f 28/28/28 9/9/9 29/29/29
f 13/13/13 29/29/29 14/14/14
f 7/7/7 13/13/13 12/12/12
f 32/32/32 26/26/26 29/29/29
f 27/27/27 32/32/32 29/29/29
f 31/31/31 34/34/34 33/33/33
f 34/34/34 31/31/31 32/32/32
f 33/33/33 34/34/34 32/32/32
f 35/35/35 119/119/119 36/36/36
f 37/37/37 38/38/38 39/39/39
f 37/37/37 40/40/40 38/38/38
f 119/119/119 41/41/41 40/40/40
f 40/40/40 41/41/41 38/38/38
f 42/42/42 43/43/43 44/44/44
f 45/45/45 44/44/44 43/43/43
f 37/37/37 39/39/39 43/43/43
f 43/43/43 42/42/42 37/37/37
f 44/44/44 119/119/119 42/42/42
f 40/40/40 37/37/37 42/42/42
f 46/46/46 47/47/47 48/48/48
f 47/47/47 46/46/46 49/49/49
f 46/46/46 48/48/48 50/50/50
f 48/48/48 51/51/51 50/50/50
f 119/119/119 40/40/40 42/42/42
f 119/119/119 35/35/35 41/41/41
f 52/52/52 44/44/44 53/53/53
f 45/45/45 53/53/53 44/44/44
f 54/54/54 50/50/50 55/55/55
f 51/51/51 55/55/55 50/50/50
f 120/120/120 56/56/56 36/36/36
f 56/56/56 120/120/120 53/53/53
f 35/35/35 36/36/36 56/56/56
f 52/52/52 53/53/53 120/120/120
f 57/57/57 58/58/58 59/59/59
f 60/60/60 61/61/61 62/62/62
f 57/57/57 63/63/63 64/64/64
f 65/65/65 66/66/66 67/67/67
f 63/63/63 68/68/68 69/69/69
f 59/59/59 68/68/68 57/57/57
f 65/65/65 70/70/70 66/66/66
f 70/70/70 65/65/65 60/60/60
f 57/57/57 68/68/68 63/63/63
f 71/71/71 62/62/62 61/61/61
f 71/71/71 61/61/61 67/67/67
f 59/59/59 58/58/58 70/70/70
f 60/60/60 62/62/62 59/59/59
f 59/59/59 70/70/70 60/60/60
f 70/70/70 58/58/58 66/66/66
f 71/71/71 68/68/68 62/62/62
f 59/59/59 62/62/62 68/68/68
f 65/65/65 72/72/72 60/60/60
f 73/73/73 61/61/61 60/60/60
f 74/74/74 73/73/73 60/60/60
f 65/65/65 67/67/67 72/72/72
f 75/75/75 76/76/76 121/121/121
f 67/67/67 61/61/61 73/73/73
f 73/73/73 75/75/75 67/67/67
f 72/72/72 74/74/74 60/60/60
f 75/75/75 72/72/72 67/67/67
f 75/75/75 73/73/73 76/76/76
f 73/73/73 77/77/77 76/76/76
f 75/75/75 121/121/121 72/72/72
f 78/78/78 72/72/72 121/121/121
f 74/74/74 77/77/77 73/73/73
f 77/77/77 74/74/74 122/122/122
f 72/72/72 78/78/78 122/122/122
f 122/122/122 74/74/74 72/72/72
f 64/64/64 79/79/79 80/80/80
f 80/80/80 81/81/81 64/64/64
f 79/79/79 64/64/64 63/63/63
f 81/81/81 80/80/80 82/82/82
f 79/79/79 63/63/63 83/83/83
f 84/84/84 85/85/85 82/82/82
f 84/84/84 83/83/83 69/69/69
f 67/67/67 66/66/66 86/86/86
f 86/86/86 71/71/71 67/67/67
f 81/81/81 58/58/58 57/57/57
f 81/81/81 57/57/57 64/64/64
f 58/58/58 85/85/85 66/66/66
f 85/85/85 81/81/81 82/82/82
f 86/86/86 66/66/66 84/84/84
f 82/82/82 87/87/87 88/88/88
f 84/84/84 71/71/71 86/86/86
f 89/89/89 83/83/83 88/88/88
f 83/83/83 63/63/63 69/69/69
f 58/58/58 81/81/81 85/85/85
f 66/66/66 85/85/85 84/84/84
f 84/84/84 69/69/69 71/71/71
f 69/69/69 68/68/68 71/71/71
f 82/82/82 88/88/88 84/84/84
f 88/88/88 83/83/83 84/84/84
f 90/90/90 87/87/87 89/89/89
f 87/87/87 90/90/90 88/88/88
f 90/90/90 89/89/89 88/88/88
f 123/123/123 91/91/91 92/92/92
f 93/93/93 94/94/94 95/95/95
f 96/96/96 94/94/94 93/93/93
f 97/97/97 123/123/123 96/96/96
f 97/97/97 96/96/96 93/93/93
f 98/98/98 99/99/99 100/100/100
f 100/100/100 101/101/101 98/98/98
f 95/95/95 94/94/94 98/98/98
f 99/99/99 98/98/98 94/94/94
f 123/123/123 100/100/100 99/99/99
f 94/94/94 96/96/96 99/99/99
f 102/102/102 103/103/103 104/104/104
f 103/103/103 102/102/102 105/105/105
f 104/104/104 103/103/103 106/106/106
f 107/107/107 104/104/104 106/106/106
f 96/96/96 123/123/123 99/99/99
f 91/91/91 123/123/123 97/97/97
f 100/100/100 108/108/108 109/109/109
f 109/109/109 101/101/101 100/100/100
f 106/106/106 110/110/110 111/111/111
f 111/111/111 107/107/107 106/106/106
f 112/112/112 124/124/124 92/92/92
f 124/124/124 112/112/112 109/109/109
f 92/92/92 91/91/91 112/112/112
f 109/109/109 108/108/108 124/124/124
