# item 894 - h

mtllib 2_mi_boots_17.mtl

v 4.596200 14.926400 0.364600
v 3.841100 19.291201 -0.485600
v 3.197400 14.634900 2.326900
v 1.399200 14.637600 0.292600
v 1.846900 18.389400 -0.039800
v 1.354900 18.168501 -1.366600
v 3.669600 8.015700 1.687000
v 4.003200 8.251200 0.788500
v 2.846400 7.729800 0.501300
v 3.224400 19.146200 0.420100
v 3.271400 19.912500 -2.069900
v 3.841100 19.291201 -0.485600
v 3.183600 15.084900 -1.519400
v 4.596200 14.926400 0.364600
v 2.107500 19.774900 -2.247800
v 1.399200 14.637600 0.292600
v 1.354900 18.168501 -1.366600
v 3.439700 8.382400 -0.279600
v 4.003200 8.251200 0.788500
v 2.846400 7.729800 0.501300
v 3.595100 -0.000100 -4.481300
v 6.271300 -0.000100 -3.839300
v 6.286000 -0.000100 -1.119700
v 6.224800 -0.000100 -5.676500
v 4.078000 -0.000100 -6.399700
v 2.842700 -0.000100 -1.089800
v 4.833200 -0.000100 2.947500
v 3.100600 -0.000100 2.455400
v 4.833200 -0.000100 2.947500
v 4.985400 4.261900 0.743600
v 3.815300 4.026300 1.687100
v 2.817400 3.740400 0.458800
v 3.100600 -0.000100 2.455400
v 3.146800 11.552500 2.488800
v 4.946700 11.389700 0.494300
v 1.760000 11.359500 0.404000
v 5.631600 1.773800 -1.947800
v 3.918900 4.393200 -0.925300
v 4.985400 4.261900 0.743600
v 4.833200 -0.000100 2.947500
v 6.286000 -0.000100 -1.119700
v 4.322900 1.318700 -5.602400
v 6.224800 -0.000100 -5.676500
v 4.078000 -0.000100 -6.399700
v 5.840600 0.953600 -5.016800
v 5.759200 1.261400 -3.753900
v 6.271300 -0.000100 -3.839300
v 3.100600 -0.000100 2.455400
v 2.817400 3.740400 0.458800
v 2.842700 -0.000100 -1.089800
v 3.813200 2.673000 -1.931900
v 3.743000 1.770300 -3.875700
v 3.595100 -0.000100 -4.481300
v 4.946700 11.389700 0.494300
v 1.760000 11.359500 0.404000
v 3.455700 11.529500 -1.585100
v -4.596200 14.926400 0.364600
v -3.197400 14.634900 2.326900
v -3.841100 19.291201 -0.485600
v -1.399200 14.637600 0.292600
v -1.354900 18.168501 -1.366600
v -1.846900 18.389400 -0.039800
v -3.669600 8.015700 1.687000
v -4.003200 8.251200 0.788500
v -2.846400 7.729800 0.501300
v -3.224400 19.146200 0.420100
v -3.271400 19.912500 -2.069900
v -3.841100 19.291201 -0.485600
v -3.183600 15.084900 -1.519400
v -4.596200 14.926400 0.364600
v -2.107500 19.774900 -2.247800
v -1.354900 18.168501 -1.366600
v -1.399200 14.637600 0.292600
v -3.439700 8.382400 -0.279600
v -4.003200 8.251200 0.788500
v -2.846400 7.729800 0.501300
v -3.595100 -0.000100 -4.481300
v -6.286000 -0.000100 -1.119700
v -6.271300 -0.000100 -3.839300
v -6.224800 -0.000100 -5.676500
v -4.078000 -0.000100 -6.399700
v -2.842700 -0.000100 -1.089800
v -3.100600 -0.000100 2.455400
v -4.833200 -0.000100 2.947500
v -4.833200 -0.000100 2.947500
v -3.815300 4.026300 1.687100
v -4.985400 4.261900 0.743600
v -2.817400 3.740400 0.458800
v -3.100600 -0.000100 2.455400
v -3.146800 11.552500 2.488800
v -4.946700 11.389700 0.494300
v -1.760000 11.359500 0.404000
v -5.631600 1.773800 -1.947800
v -4.985400 4.261900 0.743600
v -3.918900 4.393200 -0.925300
v -4.833200 -0.000100 2.947500
v -6.286000 -0.000100 -1.119700
v -4.322900 1.318700 -5.602400
v -4.078000 -0.000100 -6.399700
v -6.224800 -0.000100 -5.676500
v -5.840600 0.953600 -5.016800
v -5.759200 1.261400 -3.753900
v -6.271300 -0.000100 -3.839300
v -3.100600 -0.000100 2.455400
v -2.842700 -0.000100 -1.089800
v -2.817400 3.740400 0.458800
v -3.813200 2.673000 -1.931900
v -3.743000 1.770300 -3.875700
v -3.595100 -0.000100 -4.481300
v -4.946700 11.389700 0.494300
v -3.455700 11.529500 -1.585100
v -1.760000 11.359500 0.404000
v 2.958600 18.424801 -2.736700
v 2.958600 18.424801 -2.736700
v 2.958600 18.424801 -2.736700
v 2.958600 18.424801 -2.736700
v 2.958600 18.424801 -2.736700
v -2.958600 18.424801 -2.736700

vn 0.803300 0.138900 0.579100
vn 0.780400 0.240700 0.577100
vn 0.038000 0.102100 0.994100
vn -0.779900 0.033200 0.625000
vn -0.741300 0.243400 0.625500
vn -0.935700 0.140300 0.323600
vn -0.052200 -0.191600 0.980100
vn 0.940900 -0.062400 0.332900
vn -0.795100 -0.148800 0.587900
vn 0.395700 0.355500 0.846800
vn 0.692800 0.168600 -0.701100
vn 0.910500 -0.034300 -0.412100
vn 0.152000 -0.223400 -0.962800
vn 0.803700 -0.038200 -0.593800
vn -0.307800 0.146400 -0.940100
vn -0.665500 -0.232500 -0.709200
vn -0.614300 -0.262800 -0.744000
vn -0.002800 -0.224000 -0.974600
vn 0.873800 -0.107700 -0.474200
vn -0.711200 -0.169600 -0.682200
vn 0.000000 -1.000000 -0.000000
vn 0.000000 -1.000000 -0.000000
vn 0.000000 -1.000000 -0.000000
vn 0.000000 -1.000000 -0.000000
vn 0.000000 -1.000000 -0.000000
vn -0.000000 -1.000000 -0.000000
vn 0.000000 -1.000000 -0.000000
vn 0.000000 -1.000000 -0.000000
vn -0.110600 0.271300 0.956100
vn 0.598600 0.166000 0.783700
vn -0.135300 0.189300 0.972600
vn -0.781800 0.064600 0.620100
vn -0.386100 0.238600 0.891100
vn -0.099500 -0.114100 0.988500
vn 0.728500 -0.001000 0.685000
vn -0.812300 -0.128100 0.569000
vn 0.803900 0.573600 -0.157600
vn -0.029500 0.343700 -0.938600
vn 0.937800 0.203600 -0.281200
vn 0.954100 0.195900 0.226600
vn 0.890200 0.418400 0.180000
vn -0.210100 0.779000 -0.590800
vn 0.661500 0.543700 -0.516500
vn -0.367000 0.489900 -0.790800
vn 0.636800 0.707300 -0.306900
vn 0.666200 0.732700 -0.139200
vn 0.926100 0.376900 -0.014600
vn -0.996700 -0.036700 0.072500
vn -0.901100 0.066300 -0.428500
vn -0.981400 0.125300 -0.145200
vn -0.452200 0.596500 -0.663000
vn -0.536900 0.775100 -0.333200
vn -0.960100 0.158900 -0.230000
vn 0.817700 -0.003300 -0.575600
vn -0.751900 -0.109000 -0.650200
vn 0.016400 -0.091000 -0.995700
vn -0.803300 0.138900 0.579100
vn -0.038000 0.102100 0.994100
vn -0.780400 0.240700 0.577100
vn 0.779900 0.033200 0.625000
vn 0.935700 0.140300 0.323600
vn 0.741300 0.243400 0.625500
vn 0.052200 -0.191600 0.980100
vn -0.940900 -0.062400 0.332900
vn 0.795100 -0.148800 0.587900
vn -0.395700 0.355500 0.846800
vn -0.692800 0.168600 -0.701100
vn -0.910500 -0.034300 -0.412100
vn -0.152000 -0.223400 -0.962800
vn -0.803700 -0.038200 -0.593800
vn 0.307800 0.146400 -0.940100
vn 0.614300 -0.262800 -0.744000
vn 0.665500 -0.232500 -0.709200
vn 0.002800 -0.224000 -0.974600
vn -0.873800 -0.107700 -0.474200
vn 0.711200 -0.169600 -0.682200
vn -0.000000 -1.000000 -0.000000
vn -0.000000 -1.000000 -0.000000
vn -0.000000 -1.000000 -0.000000
vn -0.000000 -1.000000 -0.000000
vn -0.000000 -1.000000 -0.000000
vn -0.000000 -1.000000 -0.000000
vn -0.000000 -1.000000 -0.000000
vn -0.000000 -1.000000 -0.000000
vn 0.110600 0.271300 0.956100
vn 0.135300 0.189300 0.972600
vn -0.598600 0.166000 0.783700
vn 0.781800 0.064600 0.620100
vn 0.386100 0.238600 0.891100
vn 0.099500 -0.114100 0.988500
vn -0.728500 -0.001000 0.685000
vn 0.812300 -0.128100 0.569000
vn -0.803900 0.573600 -0.157600
vn -0.937800 0.203600 -0.281200
vn 0.029500 0.343700 -0.938600
vn -0.954100 0.195900 0.226600
vn -0.890200 0.418400 0.180000
vn 0.210100 0.779000 -0.590800
vn 0.367000 0.489900 -0.790800
vn -0.661500 0.543700 -0.516500
vn -0.636800 0.707300 -0.306900
vn -0.666200 0.732700 -0.139200
vn -0.926100 0.376900 -0.014600
vn 0.996700 -0.036700 0.072500
vn 0.981400 0.125300 -0.145200
vn 0.901100 0.066300 -0.428500
vn 0.452200 0.596500 -0.663000
vn 0.536900 0.775100 -0.333200
vn 0.960100 0.158900 -0.230000
vn -0.817700 -0.003300 -0.575600
vn -0.016400 -0.091000 -0.995700
vn 0.751900 -0.109000 -0.650200
vn 0.243200 -0.110700 -0.963600
vn 0.243200 -0.110700 -0.963600
vn 0.243200 -0.110700 -0.963600
vn 0.243200 -0.110700 -0.963600
vn 0.243200 -0.110700 -0.963600
vn -0.243200 -0.110700 -0.963600

vt 0.862800 0.274800
vt 0.863100 0.357700
vt 0.924900 0.269100
vt 0.990800 0.269200
vt 0.974400 0.342300
vt 0.992400 0.338000
vt 0.906900 0.146900
vt 0.863100 0.146400
vt 0.950000 0.141100
vt 0.925900 0.353200
vt 0.803800 0.363600
vt 0.862200 0.356300
vt 0.801400 0.276300
vt 0.862500 0.273400
vt 0.763800 0.363000
vt 0.739000 0.268100
vt 0.740100 0.333300
vt 0.816200 0.148600
vt 0.862200 0.148200
vt 0.781500 0.140300
vt 0.216600 0.274100
vt 0.227900 0.310600
vt 0.197100 0.319300
vt 0.244000 0.306000
vt 0.239300 0.275400
vt 0.177100 0.273300
vt 0.145600 0.308600
vt 0.141800 0.286400
vt 0.447400 0.108700
vt 0.468100 0.164300
vt 0.506900 0.162700
vt 0.567300 0.163900
vt 0.565600 0.108500
vt 0.506900 0.312200
vt 0.449800 0.309300
vt 0.561700 0.310500
vt 0.751400 0.104600
vt 0.644700 0.161800
vt 0.714700 0.162400
vt 0.793300 0.119500
vt 0.796100 0.099500
vt 0.680100 0.060200
vt 0.798800 0.024300
vt 0.680400 0.023800
vt 0.758800 0.058400
vt 0.759100 0.083500
vt 0.798800 0.063100
vt 0.565000 0.108100
vt 0.566800 0.163300
vt 0.587800 0.097000
vt 0.650600 0.120300
vt 0.656300 0.086500
vt 0.621200 0.068800
vt 0.727300 0.312200
vt 0.562200 0.311500
vt 0.668400 0.312000
vt 0.862800 0.274800
vt 0.924900 0.269100
vt 0.863100 0.357700
vt 0.990800 0.269200
vt 0.992400 0.338000
vt 0.974400 0.342300
vt 0.906900 0.146900
vt 0.863100 0.146400
vt 0.950000 0.141100
vt 0.925900 0.353200
vt 0.803800 0.363600
vt 0.862200 0.356300
vt 0.801400 0.276300
vt 0.862500 0.273400
vt 0.763800 0.363000
vt 0.740100 0.333300
vt 0.739000 0.268100
vt 0.816200 0.148600
vt 0.862200 0.148200
vt 0.781500 0.140300
vt 0.216600 0.274100
vt 0.197100 0.319300
vt 0.227900 0.310600
vt 0.244000 0.306000
vt 0.239300 0.275400
vt 0.177100 0.273300
vt 0.141800 0.286400
vt 0.145600 0.308600
vt 0.447400 0.108700
vt 0.506900 0.162700
vt 0.468100 0.164300
vt 0.567300 0.163900
vt 0.565600 0.108500
vt 0.506900 0.312200
vt 0.449800 0.309300
vt 0.561700 0.310500
vt 0.751400 0.104600
vt 0.714700 0.162400
vt 0.644700 0.161800
vt 0.793300 0.119500
vt 0.796100 0.099500
vt 0.680100 0.060200
vt 0.680400 0.023800
vt 0.798800 0.024300
vt 0.758800 0.058400
vt 0.759100 0.083500
vt 0.798800 0.063100
vt 0.565000 0.108100
vt 0.587800 0.097000
vt 0.566800 0.163300
vt 0.650600 0.120300
vt 0.656300 0.086500
vt 0.621200 0.068800
vt 0.727300 0.312200
vt 0.668400 0.312000
vt 0.562200 0.311500
vt 0.793500 0.338100
vt 0.793500 0.338100
vt 0.793500 0.338100
vt 0.793500 0.338100
vt 0.793500 0.338100
vt 0.793500 0.338100

g defaultobject
usemtl 2_mi_boots_17
f 1/1/1 2/2/2 3/3/3
f 4/4/4 5/5/5 6/6/6
f 1/1/1 3/3/3 7/7/7
f 8/8/8 1/1/1 7/7/7
f 7/7/7 3/3/3 4/4/4
f 9/9/9 7/7/7 4/4/4
f 2/2/2 10/10/10 3/3/3
f 3/3/3 5/5/5 4/4/4
f 3/3/3 10/10/10 5/5/5
f 11/11/11 12/12/12 113/113/113
f 12/12/12 13/13/13 114/114/114
f 12/12/12 14/14/14 13/13/13
f 15/15/15 11/11/11 115/115/115
f 13/13/13 16/16/16 17/17/17
f 14/14/14 18/18/18 13/13/13
f 16/16/16 13/13/13 18/18/18
f 14/14/14 19/19/19 18/18/18
f 20/20/20 16/16/16 18/18/18
f 116/116/116 13/13/13 17/17/17
f 117/117/117 17/17/17 15/15/15
f 21/21/21 22/22/22 23/23/23
f 24/24/24 21/21/21 25/25/25
f 21/21/21 23/23/23 26/26/26
f 26/26/26 27/27/27 28/28/28
f 26/26/26 23/23/23 27/27/27
f 21/21/21 24/24/24 22/22/22
f 29/29/29 30/30/30 31/31/31
f 32/32/32 33/33/33 31/31/31
f 33/33/33 29/29/29 31/31/31
f 34/34/34 31/31/31 35/35/35
f 35/35/35 31/31/31 30/30/30
f 31/31/31 36/36/36 32/32/32
f 31/31/31 34/34/34 36/36/36
f 37/37/37 38/38/38 39/39/39
f 39/39/39 40/40/40 37/37/37
f 40/40/40 41/41/41 37/37/37
f 42/42/42 43/43/43 44/44/44
f 42/42/42 45/45/45 43/43/43
f 46/46/46 41/41/41 47/47/47
f 48/48/48 49/49/49 50/50/50
f 50/50/50 49/49/49 51/51/51
f 52/52/52 53/53/53 50/50/50
f 50/50/50 51/51/51 52/52/52
f 52/52/52 44/44/44 53/53/53
f 44/44/44 52/52/52 42/42/42
f 37/37/37 46/46/46 52/52/52
f 37/37/37 51/51/51 38/38/38
f 45/45/45 42/42/42 52/52/52
f 49/49/49 38/38/38 51/51/51
f 39/39/39 38/38/38 54/54/54
f 38/38/38 55/55/55 56/56/56
f 56/56/56 54/54/54 38/38/38
f 55/55/55 38/38/38 49/49/49
f 37/37/37 41/41/41 46/46/46
f 46/46/46 47/47/47 43/43/43
f 45/45/45 46/46/46 43/43/43
f 46/46/46 45/45/45 52/52/52
f 51/51/51 37/37/37 52/52/52
f 57/57/57 58/58/58 59/59/59
f 60/60/60 61/61/61 62/62/62
f 57/57/57 63/63/63 58/58/58
f 64/64/64 63/63/63 57/57/57
f 63/63/63 60/60/60 58/58/58
f 65/65/65 60/60/60 63/63/63
f 59/59/59 58/58/58 66/66/66
f 58/58/58 60/60/60 62/62/62
f 58/58/58 62/62/62 66/66/66
f 67/67/67 118/118/118 68/68/68
f 68/68/68 118/118/118 69/69/69
f 68/68/68 69/69/69 70/70/70
f 71/71/71 118/118/118 67/67/67
f 69/69/69 72/72/72 73/73/73
f 70/70/70 69/69/69 74/74/74
f 73/73/73 74/74/74 69/69/69
f 70/70/70 74/74/74 75/75/75
f 76/76/76 74/74/74 73/73/73
f 118/118/118 72/72/72 69/69/69
f 118/118/118 71/71/71 72/72/72
f 77/77/77 78/78/78 79/79/79
f 80/80/80 81/81/81 77/77/77
f 77/77/77 82/82/82 78/78/78
f 82/82/82 83/83/83 84/84/84
f 82/82/82 84/84/84 78/78/78
f 77/77/77 79/79/79 80/80/80
f 85/85/85 86/86/86 87/87/87
f 88/88/88 86/86/86 89/89/89
f 89/89/89 86/86/86 85/85/85
f 90/90/90 91/91/91 86/86/86
f 91/91/91 87/87/87 86/86/86
f 86/86/86 88/88/88 92/92/92
f 86/86/86 92/92/92 90/90/90
f 93/93/93 94/94/94 95/95/95
f 94/94/94 93/93/93 96/96/96
f 96/96/96 93/93/93 97/97/97
f 98/98/98 99/99/99 100/100/100
f 98/98/98 100/100/100 101/101/101
f 102/102/102 103/103/103 97/97/97
f 104/104/104 105/105/105 106/106/106
f 105/105/105 107/107/107 106/106/106
f 108/108/108 105/105/105 109/109/109
f 105/105/105 108/108/108 107/107/107
f 108/108/108 109/109/109 99/99/99
f 99/99/99 98/98/98 108/108/108
f 93/93/93 108/108/108 102/102/102
f 93/93/93 95/95/95 107/107/107
f 101/101/101 108/108/108 98/98/98
f 106/106/106 107/107/107 95/95/95
f 94/94/94 110/110/110 95/95/95
f 95/95/95 111/111/111 112/112/112
f 111/111/111 95/95/95 110/110/110
f 112/112/112 106/106/106 95/95/95
f 93/93/93 102/102/102 97/97/97
f 102/102/102 100/100/100 103/103/103
f 101/101/101 100/100/100 102/102/102
f 102/102/102 108/108/108 101/101/101
f 107/107/107 108/108/108 93/93/93
